<svg width="72" height="24" viewBox="0 0 72 24" fill="none" xmlns="http://www.w3.org/2000/svg">
<g clip-path="url(#clip0_77_200)">
<path d="M30.7176 12.3078C30.7176 15.6391 28.1115 18.0939 24.9132 18.0939C21.715 18.0939 19.1089 15.6391 19.1089 12.3078C19.1089 8.95303 21.715 6.52173 24.9132 6.52173C28.1115 6.52173 30.7176 8.95303 30.7176 12.3078ZM28.1767 12.3078C28.1767 10.2261 26.6663 8.80173 24.9132 8.80173C23.1602 8.80173 21.6498 10.2261 21.6498 12.3078C21.6498 14.3687 23.1602 15.8139 24.9132 15.8139C26.6663 15.8139 28.1767 14.3661 28.1767 12.3078Z" fill="#EA4335"/>
<path d="M43.2396 12.3078C43.2396 15.6391 40.6335 18.0939 37.4352 18.0939C34.2369 18.0939 31.6309 15.6391 31.6309 12.3078C31.6309 8.95564 34.2369 6.52173 37.4352 6.52173C40.6335 6.52173 43.2396 8.95303 43.2396 12.3078ZM40.6987 12.3078C40.6987 10.2261 39.1883 8.80173 37.4352 8.80173C35.6822 8.80173 34.1717 10.2261 34.1717 12.3078C34.1717 14.3687 35.6822 15.8139 37.4352 15.8139C39.1883 15.8139 40.6987 14.3661 40.6987 12.3078Z" fill="#FBBC05"/>
<path d="M55.2391 6.87129V17.2591C55.2391 21.5322 52.7191 23.2774 49.74 23.2774C46.9357 23.2774 45.2478 21.4017 44.6113 19.8678L46.8235 18.9469C47.2174 19.8887 48.1826 21 49.7374 21C51.6444 21 52.8261 19.8235 52.8261 17.6087V16.7765H52.7374C52.1687 17.4782 51.0731 18.0913 49.6905 18.0913C46.7974 18.0913 44.147 15.5713 44.147 12.3287C44.147 9.0626 46.7974 6.52173 49.6905 6.52173C51.0705 6.52173 52.1661 7.13477 52.7374 7.81564H52.8261V6.8739H55.2391V6.87129ZM53.0061 12.3287C53.0061 10.2913 51.647 8.80173 49.9174 8.80173C48.1644 8.80173 46.6957 10.2913 46.6957 12.3287C46.6957 14.3452 48.1644 15.8139 49.9174 15.8139C51.647 15.8139 53.0061 14.3452 53.0061 12.3287Z" fill="#4285F4"/>
<path d="M59.2175 0.782715V17.7392H56.7393V0.782715H59.2175Z" fill="#34A853"/>
<path d="M68.8751 14.2121L70.8473 15.5269C70.2108 16.4686 68.6768 18.0912 66.0264 18.0912C62.7395 18.0912 60.2847 15.5503 60.2847 12.3051C60.2847 8.86426 62.7603 6.51904 65.7421 6.51904C68.7447 6.51904 70.2134 8.90861 70.6934 10.1999L70.9568 10.8573L63.2221 14.0608C63.8142 15.2217 64.7351 15.8138 66.0264 15.8138C67.3203 15.8138 68.2177 15.1773 68.8751 14.2121ZM62.8047 12.1303L67.9751 9.98339C67.6908 9.26078 66.8351 8.7573 65.8281 8.7573C64.5368 8.7573 62.7395 9.8973 62.8047 12.1303Z" fill="#EA4335"/>
<path d="M9.7279 10.8026V8.34778H18.0001C18.0809 8.7756 18.1227 9.28169 18.1227 9.82951C18.1227 11.6713 17.6192 13.9486 15.9966 15.5713C14.4183 17.2147 12.4018 18.0913 9.7305 18.0913C4.7792 18.0913 0.615723 14.0582 0.615723 9.10691C0.615723 4.1556 4.7792 0.122559 9.7305 0.122559C12.4696 0.122559 14.4209 1.19734 15.887 2.59821L14.1549 4.33038C13.1035 3.3443 11.6792 2.57734 9.7279 2.57734C6.11224 2.57734 3.28442 5.49125 3.28442 9.10691C3.28442 12.7226 6.11224 15.6365 9.7279 15.6365C12.0731 15.6365 13.4088 14.6947 14.2644 13.8391C14.9583 13.1452 15.4149 12.1539 15.5949 10.7999L9.7279 10.8026Z" fill="#4285F4"/>
</g>
<defs>
<clipPath id="clip0_77_200">
<rect width="70.9565" height="24" fill="white" transform="translate(0.521973)"/>
</clipPath>
</defs>
</svg>
