<svg width="70" height="20" viewBox="0 0 70 20" fill="none" xmlns="http://www.w3.org/2000/svg">
<path d="M66.3965 17.4152C67.755 17.4152 68.7173 17.1699 69.4343 16.6416V14.2454C68.6984 14.7548 67.8116 15.0756 66.5664 15.0756C64.472 15.0756 63.6041 13.4529 63.6041 10.8869C63.6041 8.18877 64.6607 6.81141 66.5852 6.81141C67.7173 6.81141 68.8305 7.20763 69.4154 7.58499V5.09443C68.7928 4.7548 67.7173 4.50952 66.2456 4.50952C62.4909 4.50952 60.5475 7.20764 60.5475 10.9812C60.5664 15.1133 62.472 17.4152 66.3965 17.4152ZM48.0381 16.3208V13.9246C47.1324 14.5473 45.5852 15.0944 44.1701 15.0944C42.0192 15.0944 41.2079 14.0756 41.0758 12.0001H48.1701V10.4529C48.1701 6.13216 46.2645 4.50952 43.3399 4.50952C39.755 4.50952 38.0569 7.24537 38.0569 11.0001C38.0569 15.3208 40.189 17.4152 43.9249 17.4152C45.7928 17.4152 47.1701 16.9057 48.0381 16.3208ZM21.1135 4.73594V9.6416H17.189V4.73594H14.2456V17.1699H17.189V11.9812H21.1135V17.1699H24.0569V4.73594H21.1135ZM37.3211 14.8303H36.0192V4.73594H27.4532V5.79254C27.4532 8.83028 27.2645 12.7548 26.2267 14.8303H25.2833V20.0001H28.0003V17.1699H34.5852V20.0001H37.3022V14.8303H37.3211ZM57.4154 17.1699H60.755L56.0381 10.4718L60.189 4.73594H57.2267L53.0758 10.4718V4.73594H50.1324V17.1699H53.0758V11.0567L57.4154 17.1699ZM43.2645 6.81141C44.7173 6.81141 45.1701 8.01896 45.1701 9.58499V9.83028H41.0758C41.1513 7.84914 41.8682 6.81141 43.2645 6.81141ZM33.0758 14.8303H28.9249C29.7362 12.9624 29.9626 9.56612 29.9626 7.41518V7.03782H33.0758V14.8303Z" fill="black"/>
<path d="M11.7925 17.1698H8.79254V2.32075H7.45291C5.00008 2.32075 3.71706 3.54717 3.71706 5.37736C3.71706 7.45283 4.60386 8.41509 6.43404 9.64151L7.94348 10.6604L3.60386 17.1698H0.377441L4.2831 11.3585C2.03782 9.75472 0.773668 8.18868 0.773668 5.54717C0.773668 2.24528 3.07555 0 7.43405 0H11.7737V17.1698H11.7925Z" fill="#FC3F1D"/>
</svg>
